<?xml version="1.0" encoding="utf-8"?>
<!-- Generator: Adobe Illustrator 23.0.1, SVG Export Plug-In . SVG Version: 6.00 Build 0)  -->
<svg version="1.1" xmlns="http://www.w3.org/2000/svg" xmlns:xlink="http://www.w3.org/1999/xlink" x="0px" y="0px"
	 viewBox="0 0 60 60" style="enable-background:new 0 0 60 60;" xml:space="preserve">
<g id="Layer_1">
	<path style="fill:#00ADEE;" d="M43.74,31.52c-0.06,0-0.11-0.02-0.16-0.07c-0.04-0.04-0.06-0.1-0.06-0.16v-7.53
		c0-0.06,0.02-0.12,0.06-0.16c0.04-0.04,0.1-0.07,0.16-0.07h3.67v0.22v-0.22c0.06,0,0.12,0.02,0.16,0.07
		c0.04,0.04,0.06,0.1,0.06,0.16v7.53c0,0.06-0.02,0.12-0.06,0.16c-0.04,0.04-0.1,0.07-0.16,0.07H43.74z M49.2,31.52
		c-0.06,0-0.11-0.02-0.16-0.07c-0.04-0.04-0.07-0.1-0.07-0.16v-9.66c0-0.06,0.02-0.12,0.07-0.16c0.04-0.04,0.1-0.07,0.16-0.07h3.67
		v0.22v-0.22c0.06,0,0.12,0.02,0.16,0.07c0.04,0.04,0.06,0.1,0.06,0.16v9.66c0,0.06-0.02,0.12-0.07,0.16
		c-0.04,0.04-0.1,0.07-0.16,0.07H49.2z M54.65,31.52c-0.06,0-0.11-0.02-0.16-0.07c-0.04-0.04-0.06-0.1-0.06-0.16V19.71
		c0-0.06,0.02-0.12,0.06-0.16c0.04-0.04,0.1-0.07,0.16-0.07h3.67v0.22v-0.22c0.06,0,0.12,0.02,0.16,0.07
		c0.04,0.04,0.06,0.1,0.06,0.16v11.59c0,0.06-0.02,0.12-0.06,0.16c-0.04,0.04-0.1,0.07-0.16,0.07H54.65z M58.86,33.06h-0.23H58.86z
		 M41.5,34.36c-0.21,0-0.39-0.08-0.54-0.22c-0.14-0.14-0.22-0.33-0.22-0.54V19.45c0-0.42,0.34-0.76,0.76-0.76
		c0.42,0,0.76,0.34,0.76,0.76v13.39h16.38c0.42,0,0.76,0.34,0.76,0.76c0,0.42-0.34,0.76-0.76,0.76H41.5z"/>
	<g id="New_Symbol_83">
	</g>
	<g>
		<path style="fill:none;" d="M23,32.78c4.94,0,9.06-6.61,9.98-12.02c0-0.05,0.25-4.8-3.2-4.53c0,0-13.5,4.29-15.24-0.99
			c0,0-1.07,0.23-1.61,4.91l0,0C13.63,25.66,17.87,32.78,23,32.78z M32.34,18.62L32.34,18.62c-0.01-0.01-0.01-0.02-0.01-0.03
			C32.34,18.6,32.34,18.61,32.34,18.62z"/>
		<path style="fill:#0F283E;" d="M31.45,32.78C31.4,35.32,23,37.74,23,37.74s-8.4-2.42-8.45-4.96C7.45,33.43,1.9,39.39,1.9,46.65
			c0,7.69,6.24,7.27,13.93,7.27h14.34c7.69,0,13.93,0.42,13.93-7.27C44.1,39.39,38.54,33.43,31.45,32.78z"/>
		<path d="M32.34,18.62c0-0.01,0-0.02-0.01-0.03C32.33,18.6,32.33,18.61,32.34,18.62L32.34,18.62z"/>
		<path style="fill:#0F283E;" d="M23,34.6c6.41,0,11.61-9.64,11.61-16.06c0-6.41-5.2-11.61-11.61-11.61
			c-6.41,0-11.62,5.2-11.62,11.61C11.39,24.96,16.59,34.6,23,34.6z M12.94,20.15c0.54-4.68,1.61-4.91,1.61-4.91
			c1.73,5.28,15.24,0.99,15.24,0.99c3.45-0.26,3.2,4.48,3.2,4.53c-0.91,5.41-5.03,12.02-9.98,12.02
			C17.87,32.78,13.63,25.66,12.94,20.15L12.94,20.15z"/>
		<polygon points="31.83,46.77 31.83,46.77 31.83,46.77 		"/>
	</g>
	<rect id="_x3C_Slice_x3E__266_" style="fill:none;" width="60" height="60"/>
</g>
<g id="Lösung_x2F_Solution">
</g>
<g id="Textanalyse">
</g>
</svg>
